<svg width="20" height="20" viewBox="0 0 20 20" fill="none" xmlns="http://www.w3.org/2000/svg">
<rect width="20" height="20" fill="white" fill-opacity="0.01"/>
<path fill-rule="evenodd" clip-rule="evenodd" d="M16.6658 9.98285C16.6616 9.77532 16.5803 9.56907 16.4219 9.4107L10.5886 3.57737C10.2632 3.25193 9.73553 3.25193 9.41009 3.57737C9.08466 3.90281 9.08466 4.43045 9.41009 4.75588L13.8208 9.16663L4.16602 9.16663C3.70578 9.16663 3.33268 9.53972 3.33268 9.99996C3.33268 10.4602 3.70578 10.8333 4.16602 10.8333L13.8208 10.8333L9.41009 15.244C9.08465 15.5695 9.08465 16.0971 9.41009 16.4225C9.73553 16.748 10.2632 16.748 10.5886 16.4225L16.4219 10.5892C16.5025 10.5087 16.5631 10.4158 16.6038 10.3166C16.6418 10.224 16.6637 10.1229 16.6658 10.0171C16.6661 10.0057 16.6661 9.99426 16.6658 9.98285Z" fill="black"/>
</svg>
