<svg width="16" height="16" viewBox="0 0 16 16" fill="none" xmlns="http://www.w3.org/2000/svg">
<rect width="16" height="16" fill="white" fill-opacity="0.01"/>
<path fill-rule="evenodd" clip-rule="evenodd" d="M10 2.00008V1.33341C10 0.965225 10.2985 0.666748 10.6667 0.666748C11.0349 0.666748 11.3333 0.965225 11.3333 1.33341V2.00008H12.6667C13.7712 2.00008 14.6667 2.89551 14.6667 4.00008V6.66675V13.3334C14.6667 14.438 13.7712 15.3334 12.6667 15.3334H3.33334C2.22877 15.3334 1.33334 14.438 1.33334 13.3334V6.66675V4.00008C1.33334 2.89551 2.22877 2.00008 3.33334 2.00008H4.66668V1.33341C4.66668 0.965225 4.96515 0.666748 5.33334 0.666748C5.70153 0.666748 6.00001 0.965225 6.00001 1.33341V2.00008H10ZM2.66668 7.33342V13.3334C2.66668 13.7016 2.96515 14.0001 3.33334 14.0001H12.6667C13.0349 14.0001 13.3333 13.7016 13.3333 13.3334V7.33342H2.66668ZM13.3333 6.00008H2.66668V4.00008C2.66668 3.63189 2.96515 3.33341 3.33334 3.33341H4.66668V4.00008C4.66668 4.36827 4.96515 4.66675 5.33334 4.66675C5.70153 4.66675 6.00001 4.36827 6.00001 4.00008V3.33341H10V4.00008C10 4.36827 10.2985 4.66675 10.6667 4.66675C11.0349 4.66675 11.3333 4.36827 11.3333 4.00008V3.33341H12.6667C13.0349 3.33341 13.3333 3.63189 13.3333 4.00008V6.00008Z" fill="black"/>
</svg>
