<svg width="16" height="16" viewBox="0 0 16 16" fill="none" xmlns="http://www.w3.org/2000/svg">
<rect width="16" height="16" fill="white" fill-opacity="0.01"/>
<path fill-rule="evenodd" clip-rule="evenodd" d="M4.94279 11.9999L2.47138 14.4713C2.05141 14.8913 1.33331 14.5939 1.33331 13.9999V3.33325C1.33331 2.22868 2.22874 1.33325 3.33331 1.33325H12.6666C13.7712 1.33325 14.6666 2.22868 14.6666 3.33325V9.99992C14.6666 11.1045 13.7712 11.9999 12.6666 11.9999H4.94279ZM2.66665 12.3904L4.19524 10.8618C4.32027 10.7368 4.48984 10.6666 4.66665 10.6666H12.6666C13.0348 10.6666 13.3333 10.3681 13.3333 9.99992V3.33325C13.3333 2.96506 13.0348 2.66659 12.6666 2.66659H3.33331C2.96512 2.66659 2.66665 2.96506 2.66665 3.33325V12.3904Z" fill="black"/>
</svg>
