<svg width="20" height="20" viewBox="0 0 20 20" fill="none" xmlns="http://www.w3.org/2000/svg">
<rect width="20" height="20" fill="white" fill-opacity="0.01"/>
<path fill-rule="evenodd" clip-rule="evenodd" d="M19.1668 5.8335C19.1668 3.07207 16.9283 0.833496 14.1668 0.833496H5.8335C3.07207 0.833496 0.833496 3.07207 0.833496 5.8335V14.1668C0.833496 16.9283 3.07207 19.1668 5.8335 19.1668H14.1668C16.9283 19.1668 19.1668 16.9283 19.1668 14.1668V5.8335ZM5.8335 2.50016H14.1668C16.0078 2.50016 17.5002 3.99255 17.5002 5.8335V14.1668C17.5002 16.0078 16.0078 17.5002 14.1668 17.5002H5.8335C3.99255 17.5002 2.50016 16.0078 2.50016 14.1668V5.8335C2.50016 3.99255 3.99255 2.50016 5.8335 2.50016ZM14.1578 9.35284C13.8886 7.53724 12.463 6.11165 10.6474 5.84242C8.86931 5.57875 7.12257 6.4851 6.31441 8.09073C5.50626 9.69635 5.81889 11.6392 7.08995 12.9103C8.361 14.1813 10.3039 14.494 11.9095 13.6858C13.5151 12.8777 14.4215 11.1309 14.1578 9.35284ZM7.80315 8.84006C8.28804 7.87668 9.33608 7.33287 10.4029 7.49108C11.4923 7.65261 12.3477 8.50797 12.5092 9.59733C12.6674 10.6642 12.1236 11.7122 11.1602 12.1971C10.1968 12.682 9.0311 12.4944 8.26847 11.7318C7.50584 10.9692 7.31825 9.80343 7.80315 8.84006ZM15.1728 6.00609C14.8473 6.33152 14.3197 6.33152 13.9942 6.00609C13.6688 5.68065 13.6688 5.15301 13.9942 4.82757C14.3197 4.50214 14.8473 4.50214 15.1728 4.82757C15.4982 5.15301 15.4982 5.68065 15.1728 6.00609Z" fill="#7F7F7F"/>
</svg>
