<svg width="20" height="23" viewBox="0 0 20 23" fill="none" xmlns="http://www.w3.org/2000/svg">
<rect y="0.53064" width="20" height="22.0408" fill="white" fill-opacity="0.01"/>
<path fill-rule="evenodd" clip-rule="evenodd" d="M5.83331 3.28571H14.1666V7.87751H5.83331V3.28571ZM15.8333 2.36734V7.87751H16.6666C18.0474 7.87751 19.1666 9.11101 19.1666 10.6326V15.2245C19.1666 16.7461 18.0474 17.9796 16.6666 17.9796H15.8333V20.7347C15.8333 21.2419 15.4602 21.6531 15 21.6531H4.99998C4.53974 21.6531 4.16665 21.2419 4.16665 20.7347V17.9796H3.33331C1.9526 17.9796 0.833313 16.7461 0.833313 15.2245V10.6326C0.833313 9.11101 1.9526 7.87751 3.33331 7.87751H4.16665V2.36734C4.16665 1.86014 4.53974 1.44897 4.99998 1.44897H15C15.4602 1.44897 15.8333 1.86014 15.8333 2.36734ZM5.83331 17.0612L5.83331 19.8164H14.1666V17.0626C14.1666 17.0621 14.1666 17.0617 14.1666 17.0612C14.1666 17.0607 14.1666 17.0603 14.1666 17.0598V14.3062H5.83331L5.83331 17.0612ZM15.8333 16.1428V13.3878C15.8333 12.8806 15.4602 12.4694 15 12.4694H4.99998C4.53974 12.4694 4.16665 12.8806 4.16665 13.3878V16.1428H3.33331C2.87308 16.1428 2.49998 15.7317 2.49998 15.2245V10.6326C2.49998 10.1254 2.87308 9.71425 3.33331 9.71425H4.9929L4.99998 9.71428L5.00706 9.71425H14.9929L15 9.71428L15.0071 9.71425H16.6666C17.1269 9.71425 17.5 10.1254 17.5 10.6326V15.2245C17.5 15.7317 17.1269 16.1428 16.6666 16.1428H15.8333Z" fill="black"/>
</svg>
