<svg width="32" height="32" viewBox="0 0 32 32" fill="none" xmlns="http://www.w3.org/2000/svg">
<rect width="32" height="32" fill="white" fill-opacity="0.01"/>
<path fill-rule="evenodd" clip-rule="evenodd" d="M15.4899 1.43431C15.3325 1.49937 15.1851 1.59586 15.0572 1.72378L9.72386 7.05711C9.20316 7.57781 9.20316 8.42203 9.72386 8.94273C10.2446 9.46343 11.0888 9.46343 11.6095 8.94273L14.6667 5.88554V19.9999C14.6667 20.7363 15.2636 21.3333 16 21.3333C16.7364 21.3333 17.3333 20.7363 17.3333 19.9999V5.88554L20.3905 8.94273C20.9112 9.46343 21.7554 9.46343 22.2761 8.94273C22.7968 8.42203 22.7968 7.57781 22.2761 7.05711L16.944 1.725C16.9407 1.72169 16.9374 1.71839 16.9341 1.71511C16.6935 1.47892 16.3638 1.33325 16 1.33325C15.8193 1.33325 15.647 1.36919 15.4899 1.43431ZM4 15.9999V26.6666C4 28.8757 5.79086 30.6666 8 30.6666H24C26.2091 30.6666 28 28.8757 28 26.6666V15.9999C28 15.2635 27.403 14.6666 26.6667 14.6666C25.9303 14.6666 25.3333 15.2635 25.3333 15.9999V26.6666C25.3333 27.403 24.7364 27.9999 24 27.9999H8C7.26362 27.9999 6.66667 27.403 6.66667 26.6666V15.9999C6.66667 15.2635 6.06971 14.6666 5.33333 14.6666C4.59695 14.6666 4 15.2635 4 15.9999Z" fill="black"/>
</svg>
