<svg width="20" height="20" viewBox="0 0 20 20" fill="none" xmlns="http://www.w3.org/2000/svg">
<rect width="20" height="20" fill="white" fill-opacity="0.01"/>
<path fill-rule="evenodd" clip-rule="evenodd" d="M9.16951 6.05932C9.23527 4.23482 10.3855 2.61483 12.1048 1.95862C13.7151 1.34399 15.5165 1.69246 16.7775 2.82099C17.4543 2.57223 18.0962 2.23557 18.6865 1.81916C19.3157 1.37534 20.1587 1.94919 19.9765 2.69731C19.6911 3.86943 19.1189 4.94979 18.3143 5.84264C18.3266 5.97762 18.3331 6.11348 18.3335 6.25013C18.3335 16.133 8.79515 21.2099 0.428838 16.5619C-0.338397 16.1357 -0.0103306 14.9659 0.866661 15.0008C2.27216 15.0567 3.6635 14.7773 4.92867 14.1945C3.09189 13.0623 1.91576 11.5634 1.33878 9.7903C0.743056 7.95952 0.83001 6.03561 1.327 4.20844C1.47734 3.65573 1.63014 3.23927 1.7387 2.99501C2.00176 2.40313 2.80993 2.32448 3.18217 2.85453C4.52541 4.76723 6.6214 5.9869 8.91142 6.2323L9.16664 6.25555L9.16951 6.05932ZM17.3633 4.38139L17.0785 4.48155L16.7905 4.57308C16.4766 4.66759 16.1365 4.56933 15.9214 4.32201C15.1228 3.40381 13.836 3.08181 12.6991 3.51574C11.5622 3.94966 10.8171 5.0472 10.8335 6.27514V7.10848C10.8335 7.5603 10.4735 7.92982 10.0218 7.94153C7.30452 8.01199 4.70849 6.94234 2.83691 5.03619C2.50772 6.4571 2.48365 7.92241 2.92365 9.2746C3.48784 11.0084 4.77937 12.416 7.00531 13.4053C7.60262 13.6708 7.6757 14.4892 7.13489 14.8563C6.2023 15.4893 5.18046 15.9644 4.1102 16.2699C10.5095 17.9535 16.6669 13.7053 16.6669 6.2529C16.6663 6.07236 16.6489 5.89226 16.615 5.71493C16.5628 5.44172 16.6503 5.16046 16.8484 4.96514C17.034 4.78207 17.206 4.58694 17.3633 4.38139Z" fill="#7F7F7F"/>
</svg>
