<svg width="20" height="20" viewBox="0 0 20 20" fill="none" xmlns="http://www.w3.org/2000/svg">
<rect width="20" height="20" fill="white" fill-opacity="0.01"/>
<path fill-rule="evenodd" clip-rule="evenodd" d="M9.80194 2.50049L10.2858 2.5008L11.3952 2.51058C11.9667 2.51804 12.5579 2.52954 13.1433 2.546L13.726 2.56414C15.4818 2.62438 16.7324 2.71943 17.3935 2.88144C18.4793 3.18861 19.3178 4.05305 19.6034 5.20203C19.8769 6.71815 20.0097 8.25631 20 9.78863C20.0054 11.3062 19.8727 12.821 19.5917 14.369C19.3178 15.4635 18.4793 16.328 17.382 16.6383C16.8236 16.7877 15.7957 16.8861 14.3682 16.9528L13.776 16.9778C13.1558 17.0015 12.5033 17.0189 11.8429 17.0308L10.5251 17.0476H9.47487L8.1571 17.0308C7.49665 17.0189 6.84416 17.0015 6.22396 16.9778L5.63178 16.9528C4.20418 16.8861 3.17585 16.7875 2.6134 16.6371C1.55059 16.3463 0.716995 15.5213 0.396562 14.3812C0.123086 12.8651 -0.00966287 11.327 3.90032e-06 9.79575C-0.00755134 8.2667 0.125189 6.74019 0.408265 5.18096C0.682235 4.08638 1.52074 3.22194 2.61803 2.91159C3.19743 2.75663 4.28432 2.65619 5.79531 2.58964L6.88657 2.54945C7.56114 2.52892 8.23766 2.51562 8.87544 2.50796L9.80194 2.50049ZM9.80287 4.16716L9.35796 4.16987C8.6305 4.17572 7.83308 4.189 7.03728 4.21236L5.92802 4.25224C4.51544 4.31381 3.47993 4.40631 3.06019 4.51849C2.54892 4.66314 2.15407 5.0702 2.03677 5.53119C1.78349 6.93566 1.6596 8.3604 1.66665 9.79686C1.65762 11.2347 1.78152 12.6703 2.01813 14.005C2.16024 14.5041 2.55279 14.8926 3.04863 15.0283C3.48696 15.1455 4.56156 15.2403 6.0253 15.3019L6.90621 15.3336C7.32484 15.3464 7.75466 15.3566 8.18825 15.3644L9.48691 15.3809H10.5131L11.8117 15.3644C12.2453 15.3566 12.6751 15.3464 13.0938 15.3336L13.9747 15.3019L14.7118 15.2662C15.7973 15.2063 16.5878 15.1255 16.9398 15.0314C17.4511 14.8868 17.8459 14.4797 17.9632 14.0188C18.2145 12.6249 18.3384 11.211 18.3333 9.7864C18.3424 8.34854 18.2185 6.91294 17.9749 5.5523C17.8459 5.03687 17.4511 4.6298 16.969 4.49284C16.5726 4.39605 15.6744 4.31667 14.4449 4.26061L13.6688 4.22983C12.9098 4.20379 12.1239 4.1869 11.3733 4.1771L10.2815 4.16746L9.80287 4.16716ZM7.29166 7.06653C7.29166 6.42744 7.98141 6.02621 8.53695 6.34214L13.3286 9.06714C13.8905 9.38665 13.8905 10.1964 13.3286 10.5159L8.53695 13.2409C7.98141 13.5568 7.29166 13.1556 7.29166 12.5165V7.06653ZM8.95833 11.0839L11.2309 9.7915L8.95833 8.49908V11.0839Z" fill="#7F7F7F"/>
</svg>
