<svg width="28" height="28" viewBox="0 0 28 28" fill="none" xmlns="http://www.w3.org/2000/svg">
<path fill-rule="evenodd" clip-rule="evenodd" d="M12.666 0.666748C19.2934 0.666748 24.666 6.03933 24.666 12.6667C24.666 15.5001 23.684 18.1042 22.0418 20.1571L26.9421 25.0574C27.4628 25.5781 27.4628 26.4223 26.9421 26.943C26.4214 27.4637 25.5772 27.4637 25.0565 26.943L20.1562 22.0427C18.1033 23.6848 15.4993 24.6667 12.666 24.6667C6.0386 24.6667 0.666016 19.2942 0.666016 12.6667C0.666016 6.03933 6.0386 0.666748 12.666 0.666748ZM19.1415 19.3883C17.4632 21.0055 15.1807 22.0001 12.666 22.0001C7.51136 22.0001 3.33268 17.8214 3.33268 12.6667C3.33268 7.51209 7.51136 3.33341 12.666 3.33341C17.8207 3.33341 21.9993 7.51209 21.9993 12.6667C21.9993 15.1815 21.0048 17.464 19.3875 19.1423C19.342 19.1774 19.2982 19.2157 19.2565 19.2574C19.2148 19.2991 19.1765 19.3428 19.1415 19.3883Z" fill="black"/>
</svg>
